<svg width="31" height="21" fill="none" xmlns="http://www.w3.org/2000/svg"><path opacity=".7" d="M4.124 0A3.144 3.144 0 00.996 3.128v14.6a3.144 3.144 0 003.128 3.128h22.942a3.144 3.144 0 003.128-3.129V3.128A3.144 3.144 0 0027.066 0H4.124zm0 2.086h22.942c.59 0 1.043.452 1.043 1.042v14.6c0 .59-.453 1.042-1.043 1.042H4.124c-.59 0-1.042-.453-1.042-1.043V3.128c0-.59.452-1.042 1.042-1.042zm6.255 3.128c-.485 0-1.039.276-1.397.68-.278.335-.579.866-.475 1.397.498.059 1.041-.253 1.353-.657.346-.37.542-.89.52-1.42zm2.088 2.085v6.257h.972v-2.143h1.352c1.225 0 2.09-.842 2.09-2.056 0-1.225-.854-2.058-2.068-2.058h-2.346zm-5.383.546c-1.085 0-1.917.949-1.917 2.31 0 1.772 1.245 3.401 2.023 3.401.47 0 .64-.316 1.264-.316.575 0 .756.316 1.245.316.928 0 1.696-1.887 1.725-2.002-.153-.077-1.046-.497-1.045-1.513 0-.987.815-1.429.853-1.448-.45-.671-1.16-.748-1.428-.748-.622 0-1.166.337-1.464.337-.306 0-.758-.337-1.256-.337zm6.355.275h1.12c.843 0 1.33.45 1.33 1.237 0 .786-.487 1.248-1.33 1.248h-1.12V8.12zm5.733.776c-1.028 0-1.793.59-1.815 1.4h.877c.07-.382.428-.637.913-.637.6 0 .927.279.927.788v.346l-1.214.081c-1.121.07-1.735.532-1.735 1.33 0 .809.625 1.352 1.525 1.352.613 0 1.18-.313 1.434-.799h.022v.752h.902v-3.12c0-.902-.727-1.493-1.836-1.493zm2.235.06l1.642 4.566-.081.276c-.15.463-.394.649-.821.649-.08 0-.23-.013-.287-.013v.751c.059.011.298.023.368.023.95 0 1.4-.37 1.794-1.456l1.698-4.797h-.984l-1.143 3.7h-.025l-1.142-3.7h-1.018zm-1.334 2.494v.348h-.001c0 .59-.497 1.004-1.155 1.004-.521 0-.843-.24-.843-.622 0-.393.312-.626.925-.66l1.074-.07z" fill="#fff"/></svg>