<svg width="62" height="80" fill="none" xmlns="http://www.w3.org/2000/svg"><path fill-rule="evenodd" clip-rule="evenodd" d="M.577 6.154C.577 2.829 3.133 0 6.441 0h28.836c3.308 0 5.864 2.829 5.864 6.154v39.393a1.33 1.33 0 01-1.328 1.333 1.33 1.33 0 01-1.328-1.333V6.154c0-1.998-1.507-3.488-3.208-3.488H6.441c-1.701 0-3.208 1.49-3.208 3.488v59.054c0 1.998 1.507 3.488 3.208 3.488h7.652a1.33 1.33 0 011.327 1.333 1.33 1.33 0 01-1.327 1.333H6.44c-3.308 0-5.864-2.83-5.864-6.154V6.154z" fill="#fff"/><path fill-rule="evenodd" clip-rule="evenodd" d="M.577 7.324c0-.726.595-1.315 1.328-1.315h37.908c.733 0 1.328.589 1.328 1.315s-.595 1.314-1.328 1.314H1.905A1.321 1.321 0 01.577 7.324zm0 56.714c0-.726.599-1.315 1.337-1.315h15.354c.739 0 1.338.589 1.338 1.315s-.6 1.314-1.338 1.314H1.915a1.326 1.326 0 01-1.337-1.314zM22.553 41.65a2.093 2.093 0 00-2.86-.765h-.002a2.097 2.097 0 00-.768 2.866l17.553 30.478a6.182 6.182 0 008.453 2.27l5.366-3.103 5.365-3.103a6.2 6.2 0 002.267-8.465l-7.751-13.447a2.093 2.093 0 00-2.862-.766 2.1 2.1 0 00-.764 2.866c.368.638.15 1.454-.488 1.822a1.331 1.331 0 01-1.82-.488 2.093 2.093 0 00-2.861-.766h-.002a2.097 2.097 0 00-.77 2.862l.003.005a1.336 1.336 0 01-.49 1.822 1.331 1.331 0 01-1.819-.49l-.002-.003a2.09 2.09 0 00-2.859-.766 2.1 2.1 0 00-.765 2.865 1.332 1.332 0 11-2.308 1.334L22.553 41.65zm9.986 11.985a4.738 4.738 0 011.57-1.468 4.74 4.74 0 013.697-.453 4.747 4.747 0 012.243-2.977 4.743 4.743 0 013.694-.453 4.755 4.755 0 018.74-1.237l7.751 13.446a8.872 8.872 0 01-3.24 12.111h-.002l-5.365 3.103-5.365 3.103c-4.236 2.45-9.648.993-12.093-3.246l-17.554-30.48a4.768 4.768 0 011.745-6.51 4.755 4.755 0 016.501 1.743l7.678 13.318z" fill="#fff"/><path d="M38.882 76.683a1.36 1.36 0 01.63 1.795 1.31 1.31 0 01-1.761.64L18.61 69.88a1.358 1.358 0 01-.668-1.703l1.234.485c-1.234-.485-1.233-.486-1.233-.486v-.001l.001-.003.002-.004.001-.003.008-.02a4.295 4.295 0 01.108-.252 8.18 8.18 0 01.318-.624 8.044 8.044 0 011.327-1.76c.617-.61 1.444-1.197 2.501-1.482 1.073-.29 2.287-.242 3.614.273 2.215.86 3.77 1.57 4.78 2.073.506.251.876.45 1.124.59a12.57 12.57 0 01.361.21l.023.015.008.005.003.001.001.001c.62.394.81 1.226.423 1.857l-1.826.427-.046-.028-5.792-2.633c-.853-.331-1.502-.32-1.996-.186-.51.138-.955.433-1.337.811-.35.352-.75 1.257.45 2.057L34.5 75l4.382 1.683z" fill="#fff"/><path fill-rule="evenodd" clip-rule="evenodd" d="M21.202 36.647c-3.608 0-6.537 2.91-6.537 6.494a6.473 6.473 0 002.827 5.348c.605.416.756 1.24.338 1.841a1.338 1.338 0 01-1.853.337C13.576 49.017 12 46.263 12 43.14c0-5.044 4.123-9.14 9.202-9.14 5.08 0 9.202 4.096 9.202 9.141 0 .731-.597 1.324-1.333 1.324a1.328 1.328 0 01-1.332-1.324c0-3.584-2.93-6.494-6.537-6.494z" fill="#fff"/></svg>