<svg width="15" height="15" xmlns="http://www.w3.org/2000/svg"><path d="M10.202.045c.718.033 1.214.139 1.672.317.435.162.828.418 1.153.75.332.325.588.718.75 1.153.178.459.284.954.317 1.672.04.89.045 1.203.045 3.132 0 1.93-.005 2.244-.045 3.133-.033.718-.139 1.214-.317 1.673a3.159 3.159 0 01-.75 1.152 3.158 3.158 0 01-1.153.75c-.459.178-.954.284-1.672.317-.89.04-1.202.045-3.133.045-1.93 0-2.244-.005-3.132-.045-.718-.033-1.214-.139-1.673-.317a3.157 3.157 0 01-1.152-.75 3.158 3.158 0 01-.75-1.153c-.178-.459-.284-.954-.317-1.672C.005 9.314 0 9.001 0 7.07c0-1.93.005-2.244.045-3.132.033-.718.139-1.214.317-1.672.162-.435.418-.828.75-1.153a3.158 3.158 0 011.152-.75c.46-.178.955-.284 1.673-.317C4.825.005 5.138 0 7.069 0s2.245.005 3.133.045zM7.07 1.571c-1.908 0-2.2.004-3.061.044-.546.025-.874.094-1.175.211-.256.1-.42.206-.61.397-.191.19-.297.354-.397.61-.116.3-.186.629-.211 1.175-.04.86-.044 1.153-.044 3.061 0 1.91.004 2.201.044 3.062.025.546.094.874.211 1.174.1.257.206.42.397.611.19.191.354.297.61.397.3.116.629.186 1.175.211.861.04 1.153.044 3.061.044 1.91 0 2.2-.004 3.062-.044.546-.025.874-.094 1.175-.211.256-.1.42-.207.61-.397.191-.19.297-.354.397-.61.116-.3.186-.629.211-1.175.04-.861.044-1.153.044-3.062 0-1.908-.004-2.2-.044-3.061-.025-.546-.094-.874-.211-1.174a1.597 1.597 0 00-.397-.611 1.596 1.596 0 00-.61-.397c-.301-.116-.63-.186-1.175-.211-.861-.04-1.153-.044-3.062-.044zm0 9.164a3.666 3.666 0 110-7.331 3.666 3.666 0 010 7.331zm0-1.57a2.095 2.095 0 100-4.19 2.095 2.095 0 000 4.19zm3.666-4.976a.785.785 0 110-1.57.785.785 0 010 1.57z"/></svg>