<svg width="30" height="21" fill="none" xmlns="http://www.w3.org/2000/svg"><path opacity=".7" d="M3.128 0A3.144 3.144 0 000 3.128v14.6a3.144 3.144 0 003.128 3.128H26.07a3.144 3.144 0 003.128-3.129V3.128A3.144 3.144 0 0026.07 0H3.128zm0 2.086H26.07c.589 0 1.042.453 1.042 1.042v14.6c0 .588-.453 1.042-1.042 1.042H3.128a1.025 1.025 0 01-1.042-1.043V3.128c0-.589.453-1.042 1.042-1.042zm7.3 1.042c-4.02 0-7.3 3.281-7.3 7.3s3.281 7.3 7.3 7.3a7.238 7.238 0 004.171-1.304 7.241 7.241 0 004.171 1.303c4.019 0 7.3-3.28 7.3-7.3 0-4.018-3.281-7.299-7.3-7.299a7.242 7.242 0 00-4.17 1.304 7.24 7.24 0 00-4.171-1.304zm0 2.086c1.337 0 2.534.517 3.455 1.335a6.27 6.27 0 00-1.012 1.793h2.315c.146.332.284.678.358 1.043H12.61a6.14 6.14 0 00-.098 1.043c0 .356.042.703.098 1.043h2.933c-.073.365-.213.71-.358 1.042H12.87a6.267 6.267 0 001.012 1.794c-.921.816-2.117 1.335-3.455 1.335a5.199 5.199 0 01-5.214-5.214 5.199 5.199 0 015.214-5.214zm8.342 0a5.197 5.197 0 015.214 5.214 5.197 5.197 0 01-5.214 5.214 5.172 5.172 0 01-2.607-.718 7.222 7.222 0 001.564-4.496c0-1.7-.584-3.254-1.564-4.498a5.172 5.172 0 012.607-.716z" fill="#fff"/></svg>