<svg width="75" height="80" fill="none" xmlns="http://www.w3.org/2000/svg"><path d="M3.56 0h38.3c.212 0 .41.053.588.15.164.08.305.195.416.346L56.268 13.9c.24.239.359.553.359.863v13.794L54.183 31V16.414h-9.986a3.565 3.565 0 01-3.56-3.559V2.444H3.56c-.61 0-1.115.504-1.115 1.115v72.882c0 .61.504 1.115 1.115 1.115h49.509c.61 0 1.115-.504 1.115-1.115V57.75l2.444-2.443V76.44A3.565 3.565 0 0153.067 80H3.56A3.565 3.565 0 010 76.44V3.56A3.565 3.565 0 013.56 0zm39.52 4.17v8.685c0 .611.505 1.116 1.116 1.116h8.685L43.08 4.17z" fill="#fff"/><path d="M69.048 25.383l4.13 4.13a3.348 3.348 0 010 4.732l-28.565 28.57a1.212 1.212 0 01-.598.328l-9.974 2.89c-.938.275-1.783-.61-1.509-1.522l2.908-10.036c.058-.203.169-.38.31-.522l28.566-28.566a3.344 3.344 0 014.732-.004zm-4.883 3.608l5.41 5.409 1.877-1.877a.906.906 0 000-1.275l-4.13-4.13a.906.906 0 00-1.275 0l-1.882 1.873zm3.68 7.135l-5.41-5.41L38.34 54.813l5.41 5.41 24.094-24.096zm-26.42 25.228l-4.214-4.214-1.718 5.936 5.932-1.722zM12.908 33.041a1.224 1.224 0 01-1.221-1.222c0-.672.548-1.221 1.221-1.221h19.336c.673 0 1.222.549 1.222 1.221 0 .673-.549 1.222-1.222 1.222H12.908zm0 7.862a1.224 1.224 0 01-1.221-1.222c0-.673.548-1.221 1.221-1.221h30.81c.673 0 1.222.548 1.222 1.221s-.549 1.222-1.222 1.222h-30.81zm0 7.862a1.224 1.224 0 01-1.221-1.222c0-.673.548-1.222 1.221-1.222h23.52c.672 0 1.221.55 1.221 1.222 0 .673-.549 1.222-1.221 1.222h-23.52zm0 7.862a1.224 1.224 0 01-1.221-1.222c0-.673.548-1.222 1.221-1.222h18.327c.673 0 1.222.549 1.222 1.222 0 .673-.55 1.222-1.222 1.222H12.908zm0 7.862a1.224 1.224 0 01-1.221-1.222c0-.673.548-1.222 1.221-1.222h15.343c.673 0 1.222.549 1.222 1.222 0 .673-.549 1.221-1.222 1.221H12.908z" fill="#fff"/></svg>