<svg width="14" height="16" fill="none" xmlns="http://www.w3.org/2000/svg"><path d="M12.385 0a.538.538 0 00-.539.538v1.967A6.987 6.987 0 000 7.538a.538.538 0 101.077 0A5.923 5.923 0 0111.369 3.54l-2.385.796a.54.54 0 00.34 1.023l3.23-1.077a.539.539 0 00.37-.513V.54a.539.539 0 00-.54-.539zm1.077 7a.538.538 0 00-.539.538 5.923 5.923 0 01-10.292 3.998l2.385-.795a.54.54 0 00-.34-1.023l-3.23 1.077a.539.539 0 00-.369.512v3.231a.538.538 0 101.077 0v-1.967A6.986 6.986 0 0014 7.538.538.538 0 0013.462 7z" fill="#fff"/></svg>