<svg width="31" height="21" fill="none" xmlns="http://www.w3.org/2000/svg"><path opacity=".7" d="M4.124 0A3.144 3.144 0 00.996 3.128v14.6a3.144 3.144 0 003.128 3.128h22.942a3.144 3.144 0 003.128-3.129V3.128A3.144 3.144 0 0027.066 0H4.124zm0 2.086h22.942c.589 0 1.043.453 1.043 1.042v14.6c0 .588-.454 1.042-1.043 1.042H4.124a1.025 1.025 0 01-1.042-1.043V3.128c0-.589.453-1.042 1.042-1.042zm15.023 4.562c-2.009 0-3.063.99-3.063 2.248 0 2.276 2.67 1.96 2.67 3.128 0 .202-.167.654-1.273.654-1.105 0-1.824-.39-1.824-.39l-.324 1.5s.683.423 2.055.423c1.366 0 3.289-1.051 3.289-2.576 0-1.83-2.673-1.952-2.673-2.768 0-.417.354-.751 1.303-.751.62 0 1.304.49 1.304.49l.327-1.595s-.907-.36-1.793-.36l.002-.003zm-8.57.13l-1.76 5.15s-.088-.447-.13-.718C7.69 8.978 6.08 8.146 6.08 8.146l1.533 5.834h2.085l2.93-7.202h-2.051zm2.802 0l-1.14 7.202h1.924l1.14-7.202H13.38zm10.363 0l-3.128 7.202h1.89l.39-1.01h2.413l.195 1.01h1.726l-1.466-7.202h-2.02zM3.961 6.81s3.75 1.153 4.628 3.978l-.65-3.26s-.287-.719-1.043-.719H3.962l-.001.001zm20.498 2.055l.552 2.705h-1.564l1.012-2.705z" fill="#fff"/></svg>