<svg width="31" height="21" viewBox="0 0 31 21" fill="none" xmlns="http://www.w3.org/2000/svg">
 <path opacity="0.7" d="M4.12445 0C2.40907 0 0.996094 1.41297 0.996094 3.12835V17.7273C0.996094 19.4427 2.40907 20.8557 4.12445 20.8557H27.0657C28.7811 20.8557 30.194 19.4427 30.194 17.7273V3.12835C30.194 1.41297 28.7811 0 27.0657 0H4.12445ZM4.12445 2.08557H27.0657C27.6559 2.08557 28.1085 2.53814 28.1085 3.12835V17.7273C28.1085 18.3175 27.6559 18.7701 27.0657 18.7701H4.12445C3.53423 18.7701 3.08166 18.3175 3.08166 17.7273V3.12835C3.08166 2.53814 3.53423 2.08557 4.12445 2.08557ZM10.3791 5.21392C9.89417 5.21392 9.34045 5.49026 8.98173 5.89382C8.70435 6.22855 8.40299 6.76037 8.50727 7.29115C9.00468 7.34954 9.54797 7.03775 9.85976 6.63419C10.206 6.264 10.402 5.7447 10.3791 5.21392ZM12.4667 7.29949V13.5562H13.4386V11.4133H14.7911C16.0164 11.4133 16.8819 10.5707 16.8819 9.3569C16.8819 8.13163 16.0268 7.29949 14.813 7.29949H12.4667ZM7.08387 7.84486C5.99937 7.84486 5.16723 8.7938 5.16723 10.1546C5.16723 11.9274 6.41231 13.5562 7.19023 13.5562C7.65948 13.5562 7.8305 13.2402 8.45409 13.2402C9.02866 13.2402 9.2101 13.5562 9.69917 13.5562C10.6272 13.5562 11.3947 11.6688 11.4239 11.554C11.2706 11.4769 10.378 11.0566 10.3791 10.041C10.3791 9.05449 11.1935 8.61235 11.2321 8.59254C10.7816 7.92203 10.0725 7.84486 9.80449 7.84486C9.18195 7.84486 8.63762 8.18168 8.34042 8.18168C8.03384 8.18168 7.58232 7.84486 7.08387 7.84486ZM13.4386 8.12016H14.5585C15.4022 8.12016 15.8881 8.57064 15.8881 9.3569C15.8881 10.1432 15.4022 10.6051 14.5585 10.6051H13.4386V8.12016ZM19.1718 8.89599C18.1436 8.89599 17.3793 9.48621 17.3574 10.2954H18.2344C18.3042 9.91375 18.6619 9.65931 19.1468 9.65931C19.7474 9.65931 20.0738 9.93773 20.0738 10.4466V10.7928L18.86 10.8742C17.739 10.944 17.1248 11.406 17.1248 12.2037C17.1248 13.0129 17.7495 13.5562 18.6504 13.5562C19.2625 13.5562 19.8309 13.2434 20.0843 12.7574H20.1062V13.5093H21.0082V10.3893C21.0082 9.48725 20.2813 8.89599 19.1718 8.89599ZM21.4075 8.95543L23.0489 13.5218L22.9676 13.7981C22.8174 14.2611 22.5744 14.4467 22.1469 14.4467C22.0666 14.4467 21.9175 14.4342 21.8601 14.4342V15.185C21.9185 15.1965 22.1584 15.208 22.2282 15.208C23.1772 15.208 23.6276 14.8388 24.0218 13.7522L25.7195 8.95543H24.7361L23.5932 12.6542H23.5682L22.4263 8.95543H21.4075ZM20.0728 11.4498V11.7981H20.0717C20.0717 12.3872 19.5754 12.8023 18.9174 12.8023C18.396 12.8023 18.0738 12.5614 18.0738 12.1797C18.0738 11.7866 18.3856 11.554 18.9987 11.5196L20.0728 11.4498Z" fill="white"/>
</svg>
