<svg width="62" height="80" viewBox="0 0 62 80" fill="none" xmlns="http://www.w3.org/2000/svg">
  <path fill-rule="evenodd" clip-rule="evenodd" d="M0.577393 6.15377C0.577393 2.82872 3.13281 0 6.44107 0H35.2771C38.5854 0 41.1408 2.82872 41.1408 6.15377V45.5468C41.1408 46.2829 40.5464 46.8797 39.8131 46.8797C39.0799 46.8797 38.4855 46.2829 38.4855 45.5468V6.15377C38.4855 4.15592 36.9784 2.66589 35.2771 2.66589H6.44107C4.73976 2.66589 3.23264 4.15592 3.23264 6.15377V65.2077C3.23264 67.2056 4.73976 68.6956 6.44107 68.6956H14.0926C14.8258 68.6956 15.4202 69.2924 15.4202 70.0286C15.4202 70.7647 14.8258 71.3615 14.0926 71.3615H6.44107C3.13281 71.3615 0.577393 68.5328 0.577393 65.2077V6.15377Z" fill="white"/>
  <path fill-rule="evenodd" clip-rule="evenodd" d="M0.577393 7.32383C0.577393 6.59782 1.17179 6.00928 1.90502 6.00928H39.8131C40.5464 6.00928 41.1408 6.59782 41.1408 7.32383C41.1408 8.04984 40.5464 8.63839 39.8131 8.63839H1.90502C1.17179 8.63839 0.577393 8.04984 0.577393 7.32383Z" fill="white"/>
  <path fill-rule="evenodd" clip-rule="evenodd" d="M0.577393 64.0377C0.577393 63.3117 1.17602 62.7231 1.91446 62.7231H17.2685C18.0069 62.7231 18.6056 63.3117 18.6056 64.0377C18.6056 64.7637 18.0069 65.3523 17.2685 65.3523H1.91446C1.17602 65.3523 0.577393 64.7637 0.577393 64.0377Z" fill="white"/>
  <path fill-rule="evenodd" clip-rule="evenodd" d="M22.5535 41.6509C21.9761 40.6492 20.6951 40.3053 19.6922 40.8851L19.6908 40.8859C18.6871 41.4646 18.3445 42.7467 18.9231 43.7506L36.476 74.2287C36.4761 74.2288 36.4762 74.229 36.4763 74.2292C38.1876 77.1949 41.9699 78.2108 44.929 76.4986L44.9296 76.4983C46.5994 75.5332 48.4469 74.4646 50.2947 73.3959C52.1423 72.3273 53.9902 71.2585 55.6605 70.2932C58.6218 68.5793 59.6362 64.7914 57.9265 61.828L50.1757 48.3809C49.5983 47.3792 48.3174 47.0353 47.3144 47.6151C46.3142 48.1933 45.9708 49.4761 46.5498 50.4806C46.9177 51.1189 46.6992 51.935 46.0619 52.3034C45.4245 52.6719 44.6096 52.4531 44.2417 51.8148C43.6644 50.8131 42.3834 50.4692 41.3805 51.0491L41.3791 51.0498C40.3765 51.6278 40.0336 52.9077 40.6093 53.911C40.6103 53.9126 40.6112 53.9143 40.6121 53.9159C40.9791 54.5543 40.7601 55.3698 40.1228 55.7378C39.4855 56.1057 38.6711 55.8868 38.3033 55.2488C38.3026 55.2475 38.3018 55.2462 38.3011 55.2449C37.7226 54.2416 36.4436 53.8996 35.442 54.4786C34.4418 55.0568 34.0985 56.3395 34.6774 57.344C34.6774 57.344 34.6774 57.344 34.6774 57.344C35.0453 57.9823 34.8269 58.7984 34.1896 59.1669C33.5522 59.5353 32.7373 59.3166 32.3694 58.6784L32.3694 58.6783C32.3692 58.6781 32.3691 58.6778 32.369 58.6776L22.5535 41.6509L22.5535 41.6509ZM32.5392 53.6349C32.931 53.0499 33.4591 52.5433 34.1098 52.1671C35.275 51.4935 36.6072 51.3688 37.8064 51.7145C38.1075 50.5031 38.881 49.4109 40.0486 48.7374C41.2132 48.0643 42.5447 47.9395 43.7434 48.284C44.0434 47.0714 44.8159 45.9779 45.9821 45.3037C48.2571 43.9886 51.169 44.7656 52.4837 47.0466L60.234 60.4928C60.2341 60.493 60.2342 60.4932 60.2343 60.4933C62.6815 64.7356 61.2266 70.1548 56.9931 72.6044L56.9925 72.6047C55.3227 73.5698 53.4752 74.6384 51.6274 75.7071C49.7798 76.7757 47.9319 77.8445 46.2617 78.8098C42.0256 81.2605 36.6145 79.8035 34.1685 75.5638L16.615 45.0848C16.615 45.0847 16.6149 45.0845 16.6148 45.0844C15.3018 42.8059 16.0782 39.8896 18.3605 38.5733C20.6353 37.2587 23.5468 38.0358 24.8614 40.3166C24.8615 40.3166 24.8615 40.3166 24.8615 40.3166L32.5392 53.6349Z" fill="white"/>
  <path d="M38.8821 76.6832C39.5419 77.0017 39.8235 77.8051 39.5111 78.4776C39.1986 79.1502 38.4105 79.4372 37.7507 79.1187L18.6109 69.8802C17.9854 69.5783 17.6942 68.8357 17.9433 68.1775L19.1766 68.6625C17.9433 68.1775 17.9438 68.1763 17.9438 68.1763L17.9443 68.175L17.9454 68.1721L17.9471 68.1677L17.9482 68.1648L17.9559 68.1451C17.962 68.1297 17.97 68.1097 17.98 68.0855C18 68.0373 18.0279 67.9721 18.0639 67.8929C18.1358 67.7349 18.2411 67.5188 18.382 67.2686C18.6605 66.7741 19.0949 66.1157 19.7093 65.5085C20.3257 64.8992 21.1533 64.3124 22.21 64.0271C23.2826 63.7375 24.4969 63.7846 25.8242 64.2998C28.0394 65.1597 29.5938 65.8705 30.6046 66.3729C31.1101 66.6241 31.4797 66.8232 31.7282 66.9628C31.8524 67.0326 31.9464 67.0876 32.0119 67.1267C32.0447 67.1463 32.0703 67.1619 32.089 67.1735L32.112 67.1878L32.1197 67.1926L32.1226 67.1944L32.1244 67.1955C32.7438 67.5893 32.9332 68.4207 32.5469 69.0521L30.7211 69.4794C30.7127 69.4743 30.6974 69.4649 30.6749 69.4514L24.8834 66.8182C24.0297 66.4868 23.3814 66.4985 22.8869 66.632C22.3763 66.7699 21.9322 67.0649 21.5496 67.4431C21.1997 67.7954 20.8 68.7 22 69.5L34.5 75L38.8821 76.6832Z" fill="white"/>
  <path fill-rule="evenodd" clip-rule="evenodd" d="M21.2019 36.647C17.5943 36.647 14.6646 39.5574 14.6646 43.1411C14.6646 45.3571 15.7799 47.3138 17.4917 48.489C18.097 48.9046 18.2485 49.729 17.8302 50.3303C17.4118 50.9316 16.582 51.0821 15.9767 50.6665C13.576 49.0183 12 46.2632 12 43.1411C12 38.0955 16.1227 34 21.2019 34C26.2811 34 30.4038 38.0955 30.4038 43.1411C30.4038 43.872 29.8073 44.4646 29.0714 44.4646C28.3356 44.4646 27.7391 43.872 27.7391 43.1411C27.7391 39.5574 24.8094 36.647 21.2019 36.647Z" fill="white"/>
</svg>
