<svg width="15" height="11" viewBox="0 0 15 11" fill="none" xmlns="http://www.w3.org/2000/svg">
  <path opacity="0.8" d="M13.9286 0H1.07143C0.787268 0 0.514746 0.115892 0.313814 0.322183C0.112882 0.528472 0 0.808262 0 1.1V9.9C0 10.1917 0.112882 10.4715 0.313814 10.6778C0.514746 10.8841 0.787268 11 1.07143 11H13.9286C14.2127 11 14.4853 10.8841 14.6862 10.6778C14.8871 10.4715 15 10.1917 15 9.9V1.1C15 0.808262 14.8871 0.528472 14.6862 0.322183C14.4853 0.115892 14.2127 0 13.9286 0ZM12.75 1.1L7.5 4.829L2.25 1.1H12.75ZM1.07143 9.9V1.6005L7.19464 5.951C7.28432 6.01487 7.39086 6.0491 7.5 6.0491C7.60914 6.0491 7.71568 6.01487 7.80536 5.951L13.9286 1.6005V9.9H1.07143Z" fill="white"/>
</svg>
