<svg width="15" height="15" viewBox="0 0 15 15" xmlns="http://www.w3.org/2000/svg">
<path d="M10.2024 0.0453624C10.92 0.0783532 11.416 0.183806 11.8743 0.361721C12.3089 0.524207 12.7024 0.780464 13.0267 1.11226C13.3585 1.43657 13.6147 1.83 13.7772 2.26458C13.9551 2.72351 14.0606 3.21896 14.0936 3.93651C14.1342 4.82609 14.1389 5.1395 14.1389 7.06946C14.1389 8.99943 14.1342 9.31284 14.0936 10.2024C14.0606 10.92 13.9551 11.416 13.7772 11.8749C13.6146 12.3093 13.3584 12.7025 13.0267 13.0267C12.7024 13.3585 12.3089 13.6147 11.8743 13.7772C11.4154 13.9551 10.92 14.0606 10.2024 14.0936C9.31284 14.1342 9.00002 14.1389 7.06946 14.1389C5.13891 14.1389 4.8255 14.1342 3.93651 14.0936C3.21896 14.0606 2.72292 13.9551 2.264 13.7772C1.82962 13.6147 1.43638 13.3584 1.11226 13.0267C0.780464 12.7024 0.524207 12.3089 0.361721 11.8743C0.183806 11.4154 0.0783532 10.92 0.0453624 10.2024C0.00471298 9.31402 0 9.0006 0 7.06946C0 5.13891 0.00471298 4.82491 0.0453624 3.93651C0.0783532 3.21896 0.183806 2.72292 0.361721 2.26458C0.524207 1.83 0.780464 1.43657 1.11226 1.11226C1.4364 0.780536 1.82962 0.524284 2.264 0.361721C2.72351 0.183806 3.21896 0.0783532 3.93651 0.0453624C4.82491 0.00471298 5.13832 0 7.06946 0C9.00002 0 9.31402 0.00471298 10.2024 0.0453624ZM7.06946 1.57119C5.16071 1.57119 4.8685 1.57531 4.0078 1.61478C3.46168 1.63953 3.13413 1.70904 2.83309 1.82628C2.57682 1.92643 2.41363 2.03247 2.22276 2.22276C2.03188 2.41363 1.92584 2.57682 1.82628 2.83309C1.70963 3.13354 1.63953 3.46168 1.61478 4.0078C1.57531 4.8685 1.57119 5.16071 1.57119 7.06946C1.57119 8.97822 1.57531 9.27042 1.61478 10.1311C1.63953 10.6772 1.70904 11.0048 1.82628 11.3053C1.92643 11.5621 2.03247 11.7253 2.22276 11.9162C2.41363 12.107 2.57682 12.2131 2.83309 12.3126C3.13354 12.4293 3.46168 12.4994 4.0078 12.5241C4.86909 12.5636 5.1613 12.5677 7.06946 12.5677C8.97822 12.5677 9.26983 12.5636 10.1311 12.5241C10.6772 12.4994 11.0048 12.4299 11.3058 12.3126C11.5621 12.2125 11.7253 12.1065 11.9162 11.9162C12.107 11.7253 12.2131 11.5621 12.3126 11.3058C12.4293 11.0054 12.4994 10.6772 12.5241 10.1311C12.5636 9.26983 12.5677 8.97763 12.5677 7.06946C12.5677 5.1613 12.5636 4.86909 12.5241 4.0078C12.4994 3.46168 12.4299 3.13413 12.3126 2.83368C12.2293 2.6022 12.0936 2.39312 11.9162 2.22276C11.7458 2.04526 11.5367 1.90957 11.3053 1.82628C11.0048 1.70963 10.6767 1.63953 10.1305 1.61478C9.26983 1.57531 8.97763 1.57119 7.06887 1.57119H7.06946ZM7.06946 10.735C6.09731 10.735 5.16497 10.3488 4.47755 9.66138C3.79013 8.97396 3.40395 8.04162 3.40395 7.06946C3.40395 6.09731 3.79013 5.16497 4.47755 4.47755C5.16497 3.79013 6.09731 3.40395 7.06946 3.40395C8.04162 3.40395 8.97396 3.79013 9.66138 4.47755C10.3488 5.16497 10.735 6.09731 10.735 7.06946C10.735 8.04162 10.3488 8.97396 9.66138 9.66138C8.97396 10.3488 8.04162 10.735 7.06946 10.735ZM7.06946 9.16438C7.62507 9.16438 8.15792 8.94367 8.55079 8.55079C8.94367 8.15792 9.16438 7.62507 9.16438 7.06946C9.16438 6.51386 8.94367 5.98101 8.55079 5.58813C8.15792 5.19526 7.62507 4.97455 7.06946 4.97455C6.51386 4.97455 5.98101 5.19526 5.58813 5.58813C5.19526 5.98101 4.97455 6.51386 4.97455 7.06946C4.97455 7.62507 5.19526 8.15792 5.58813 8.55079C5.98101 8.94367 6.51386 9.16438 7.06946 9.16438ZM10.735 4.18925C10.5266 4.18925 10.3268 4.10648 10.1795 3.95915C10.0322 3.81182 9.94939 3.612 9.94939 3.40365C9.94939 3.1953 10.0322 2.99548 10.1795 2.84815C10.3268 2.70083 10.5266 2.61806 10.735 2.61806C10.9433 2.61806 11.1432 2.70083 11.2905 2.84815C11.4378 2.99548 11.5206 3.1953 11.5206 3.40365C11.5206 3.612 11.4378 3.81182 11.2905 3.95915C11.1432 4.10648 10.9433 4.18925 10.735 4.18925Z"/>
</svg>
