<svg width="15" height="14" viewBox="0 0 15 14" xmlns="http://www.w3.org/2000/svg">
<path d="M3.31703 14V4.55422H0.315977V14H3.31703ZM1.81689 3.26379C2.86341 3.26379 3.51482 2.53846 3.51482 1.63205C3.49532 0.705193 2.86345 0 1.83675 0C0.81021 0 0.138916 0.705207 0.138916 1.63205C0.138916 2.53851 0.790163 3.26379 1.7973 3.26379H1.8168H1.81689ZM4.9781 14H7.97915V8.72502C7.97915 8.44271 7.99865 8.16069 8.0779 7.95888C8.29485 7.39483 8.78864 6.81064 9.61766 6.81064C10.7036 6.81064 11.1381 7.67685 11.1381 8.94665V13.9999H14.1389V8.58381C14.1389 5.68244 12.6584 4.33246 10.6838 4.33246C9.0649 4.33246 8.35408 5.27917 7.95918 5.92397H7.97921V4.55403H4.97816C5.01755 5.44037 4.97816 13.9998 4.97816 13.9998L4.9781 14Z"/>
</svg>
