<svg width="30" height="21" viewBox="0 0 30 21" fill="none" xmlns="http://www.w3.org/2000/svg">
  <path opacity="0.7" d="M3.12835 0C1.41297 0 0 1.41297 0 3.12835V17.7273C0 19.4427 1.41297 20.8557 3.12835 20.8557H26.0696C27.785 20.8557 29.198 19.4427 29.198 17.7273V3.12835C29.198 1.41297 27.785 0 26.0696 0H3.12835ZM3.12835 2.08557H26.0696C26.6588 2.08557 27.1124 2.53918 27.1124 3.12835V17.7273C27.1124 18.3165 26.6588 18.7701 26.0696 18.7701H3.12835C2.53918 18.7701 2.08557 18.3165 2.08557 17.7273V3.12835C2.08557 2.53918 2.53918 2.08557 3.12835 2.08557ZM10.4278 3.12835C6.40895 3.12835 3.12835 6.40895 3.12835 10.4278C3.12835 14.4467 6.40895 17.7273 10.4278 17.7273C11.9193 17.7329 13.3761 17.2777 14.599 16.4238C15.822 17.2775 17.2787 17.7327 18.7701 17.7273C22.789 17.7273 26.0696 14.4467 26.0696 10.4278C26.0696 6.40895 22.789 3.12835 18.7701 3.12835C17.2185 3.12835 15.7773 3.60595 14.599 4.43183C13.3761 3.57802 11.9193 3.12278 10.4278 3.12835ZM10.4278 5.21392C11.7647 5.21392 12.9618 5.73114 13.8826 6.54868C13.4489 7.08672 13.1071 7.69275 12.8711 8.34227H15.1861C15.3321 8.67388 15.4697 9.02008 15.5437 9.38506H12.6114C12.5491 9.72922 12.5163 10.0781 12.5134 10.4278C12.5134 10.7845 12.5551 11.1307 12.6114 11.4706H15.5437C15.4707 11.8356 15.331 12.1818 15.1861 12.5134H12.8711C13.1057 13.1704 13.455 13.77 13.8826 14.307C12.9618 15.1235 11.7657 15.6418 10.4278 15.6418C7.5362 15.6418 5.21392 13.3195 5.21392 10.4278C5.21392 7.5362 7.5362 5.21392 10.4278 5.21392ZM18.7701 5.21392C21.6628 5.21392 23.984 7.53516 23.984 10.4278C23.984 13.3205 21.6628 15.6418 18.7701 15.6418C17.8529 15.638 16.9532 15.3904 16.1632 14.9243C17.1778 13.6454 17.7291 12.0604 17.7273 10.4278C17.7273 8.7281 17.1434 7.17435 16.1632 5.93031C16.9533 5.4646 17.853 5.21736 18.7701 5.21392Z" fill="white"/>
</svg>
