<svg width="11" height="18" viewBox="0 0 11 18" fill="none" xmlns="http://www.w3.org/2000/svg">
  <g opacity="0.8">
  <path d="M9.77778 0H1.22222C0.898069 0 0.587192 0.128769 0.357981 0.357981C0.12877 0.587192 0 0.898069 0 1.22222V15.8889C0 16.213 0.12877 16.5239 0.357981 16.7531C0.587192 16.9823 0.898069 17.1111 1.22222 17.1111H9.77778C10.1019 17.1111 10.4128 16.9823 10.642 16.7531C10.8712 16.5239 11 16.213 11 15.8889V1.22222C11 0.898069 10.8712 0.587192 10.642 0.357981C10.4128 0.128769 10.1019 0 9.77778 0ZM1.22222 1.22222H9.77778V12.2222H1.22222V1.22222ZM1.22222 15.8889V13.4444H9.77778V15.8889H1.22222Z" fill="white"/>
  <path d="M4.88889 14.0557H6.11111V15.2779H4.88889V14.0557Z" fill="white"/>
  </g>
</svg>
