<svg width="75" height="80" viewBox="0 0 75 80" fill="none" xmlns="http://www.w3.org/2000/svg">
  <path d="M3.5591 0H41.8592C42.0717 0 42.2709 0.0531209 42.448 0.150509C42.6118 0.23019 42.7534 0.345286 42.8641 0.495795L56.2683 13.9C56.5073 14.139 56.6268 14.4533 56.6268 14.7632V28.5569L54.1833 31.0004V16.4143H44.1966C42.2355 16.4143 40.6375 14.8163 40.6375 12.8552V2.44356H3.5591C2.94821 2.44356 2.44356 2.94821 2.44356 3.5591V76.4409C2.44356 77.0518 2.94821 77.5564 3.5591 77.5564H53.0677C53.6786 77.5564 54.1833 77.0518 54.1833 76.4409V57.7512L56.6268 55.3077V76.4409C56.6268 78.402 55.0288 80 53.0677 80H3.5591C1.59805 80 0 78.402 0 76.4409V3.5591C0 1.59805 1.59805 0 3.5591 0ZM43.081 4.16999V12.8552C43.081 13.4661 43.5857 13.9708 44.1966 13.9708H52.8818L43.081 4.16999Z" fill="white"/>
  <path d="M69.0482 25.3827L73.1783 29.5128C74.4842 30.8187 74.4842 32.9391 73.1783 34.245L44.6126 62.8152C44.4444 62.9834 44.2363 63.094 44.015 63.1427L34.0415 66.0334C33.1031 66.3079 32.2575 65.4225 32.532 64.5106L35.4404 54.4752C35.4979 54.2716 35.6086 54.0945 35.7502 53.9528L64.316 25.3871C65.6174 24.0768 67.7423 24.0768 69.0482 25.3827ZM64.1655 28.9905L69.5749 34.3999L71.4519 32.523C71.8016 32.1733 71.8016 31.5978 71.4519 31.2481L67.3217 27.118C66.972 26.7682 66.3965 26.7682 66.0468 27.118L64.1655 28.9905ZM67.8441 36.1264L62.4346 30.7169L38.3399 54.8116L43.7494 60.2211L67.8441 36.1264ZM41.4253 61.3543L37.2111 57.1401L35.4935 63.0763L41.4253 61.3543Z" fill="white"/>
  <path d="M12.9083 33.0412C12.2354 33.0412 11.6865 32.4923 11.6865 31.8194C11.6865 31.1466 12.2354 30.5977 12.9083 30.5977H32.2443C32.9172 30.5977 33.4661 31.1466 33.4661 31.8194C33.4661 32.4923 32.9172 33.0412 32.2443 33.0412H12.9083Z" fill="white"/>
  <path d="M12.9083 40.903C12.2354 40.903 11.6865 40.3541 11.6865 39.6813C11.6865 39.0084 12.2354 38.4595 12.9083 38.4595H43.7184C44.3913 38.4595 44.9402 39.0084 44.9402 39.6813C44.9402 40.3541 44.3913 40.903 43.7184 40.903H12.9083Z" fill="white"/>
  <path d="M12.9083 48.7648C12.2354 48.7648 11.6865 48.2159 11.6865 47.5431C11.6865 46.8702 12.2354 46.3213 12.9083 46.3213H36.4276C37.1004 46.3213 37.6493 46.8702 37.6493 47.5431C37.6493 48.2159 37.1004 48.7648 36.4276 48.7648H12.9083Z" fill="white"/>
  <path d="M12.9083 56.6267C12.2354 56.6267 11.6865 56.0777 11.6865 55.4049C11.6865 54.732 12.2354 54.1831 12.9083 54.1831H31.235C31.9079 54.1831 32.4568 54.732 32.4568 55.4049C32.4568 56.0777 31.9079 56.6267 31.235 56.6267H12.9083Z" fill="white"/>
  <path d="M12.9083 64.4885C12.2354 64.4885 11.6865 63.9396 11.6865 63.2667C11.6865 62.5938 12.2354 62.0449 12.9083 62.0449H28.2514C28.9242 62.0449 29.4732 62.5938 29.4732 63.2667C29.4732 63.9396 28.9242 64.4885 28.2514 64.4885H12.9083Z" fill="white"/>
</svg>
