<svg width="14" height="16" viewBox="0 0 14 16" fill="none" xmlns="http://www.w3.org/2000/svg">
  <path d="M12.3846 0C12.0872 0 11.8461 0.241076 11.8461 0.53847V2.50545C9.0739 -0.178449 4.65088 -0.10683 1.96699 2.66534C0.702135 3.97181 -0.00348912 5.71999 1.29738e-05 7.53842C1.29738e-05 7.83582 0.241089 8.07689 0.538483 8.07689C0.835877 8.07689 1.07692 7.83582 1.07692 7.53842C1.07758 4.26722 3.72993 1.61588 7.00117 1.61655C8.66251 1.61686 10.2473 2.31491 11.3691 3.54036L8.9837 4.33565C8.7012 4.42964 8.54833 4.73483 8.64232 5.01733C8.73631 5.29983 9.0415 5.45269 9.324 5.3587L12.5548 4.2818C12.7753 4.20835 12.9238 4.00163 12.9231 3.7692V0.538439C12.923 0.241076 12.682 0 12.3846 0Z" fill="white"/>
  <path d="M13.4616 6.99976C13.1642 6.99976 12.9231 7.24083 12.9231 7.53822C12.9225 10.8094 10.2701 13.4608 6.99887 13.4601C5.33753 13.4598 3.75272 12.7617 2.63098 11.5363L5.01634 10.741C5.29885 10.647 5.45171 10.3418 5.35772 10.0593C5.26373 9.77681 4.95854 9.62395 4.67604 9.71794L1.44529 10.7948C1.22475 10.8683 1.07624 11.075 1.07697 11.3074V14.5382C1.07697 14.8356 1.31804 15.0767 1.61544 15.0767C1.91283 15.0767 2.15391 14.8356 2.15391 14.5382V12.5712C4.92611 15.2551 9.34915 15.1835 12.033 12.4113C13.2979 11.1048 14.0035 9.35666 14 7.53822C14.0001 7.24083 13.759 6.99976 13.4616 6.99976Z" fill="white"/>
</svg>
