<svg width="12" height="15" viewBox="0 0 12 15" fill="none" xmlns="http://www.w3.org/2000/svg">
  <path fill-rule="evenodd" clip-rule="evenodd" d="M9.66667 3.66667C9.66667 5.66667 8 7.33333 6 7.33333C4 7.33333 2.33333 5.66667 2.33333 3.66667C2.33333 1.66667 4 0 6 0C8 0 9.66667 1.66667 9.66667 3.66667ZM7.66667 3.66667C7.66667 2.73333 6.93333 2 6 2C5.06667 2 4.33333 2.73333 4.33333 3.66667C4.33333 4.6 5.06667 5.33333 6 5.33333C6.93333 5.33333 7.66667 4.6 7.66667 3.66667ZM0 12.6667C0 10.4667 1.8 8.66667 4 8.66667H8C10.2 8.66667 12 10.4667 12 12.6667V14.6667H10V12.6667C10 11.5333 9.06667 10.6667 8 10.6667H4C2.93333 10.6667 2 11.5333 2 12.6667V14.6667H0V12.6667Z"/>
</svg>
