<svg width="31" height="21" viewBox="0 0 31 21" fill="none" xmlns="http://www.w3.org/2000/svg">
  <path opacity="0.7" d="M4.12445 0C2.40907 0 0.996094 1.41297 0.996094 3.12835V17.7273C0.996094 19.4427 2.40907 20.8557 4.12445 20.8557H27.0657C28.7811 20.8557 30.194 19.4427 30.194 17.7273V3.12835C30.194 1.41297 28.7811 0 27.0657 0H4.12445ZM4.12445 2.08557H27.0657C27.6549 2.08557 28.1085 2.53918 28.1085 3.12835V17.7273C28.1085 18.3165 27.6549 18.7701 27.0657 18.7701H4.12445C3.53527 18.7701 3.08166 18.3165 3.08166 17.7273V3.12835C3.08166 2.53918 3.53527 2.08557 4.12445 2.08557ZM19.1468 6.64775C17.1384 6.64775 16.0841 7.63839 16.0841 8.89599C16.0841 11.1724 18.7537 10.8564 18.7537 12.0243C18.7537 12.2256 18.5868 12.6782 17.4815 12.6782C16.3761 12.6782 15.6566 12.2871 15.6566 12.2871L15.3333 13.7887C15.3333 13.7887 16.0164 14.2111 17.3876 14.2111C18.7537 14.2111 20.6766 13.1599 20.6766 11.6354C20.6766 9.80426 18.0039 9.68329 18.0039 8.86679C18.0039 8.44968 18.3584 8.11599 19.3074 8.11599C19.9268 8.11599 20.6109 8.6061 20.6109 8.6061L20.9383 7.01064C20.9383 7.01064 20.0311 6.65088 19.1447 6.65088L19.1468 6.64775ZM10.5772 6.7781L8.81697 11.9274C8.81697 11.9274 8.72938 11.4811 8.68663 11.2099C7.69077 8.97837 6.07967 8.14623 6.07967 8.14623L7.61256 13.9796H9.69813L12.6284 6.7781H10.5793H10.5772ZM13.3792 6.7781L12.2383 13.9796H14.1633L15.3031 6.7781H13.3792ZM23.7423 6.7781L20.614 13.9796H22.5035L22.8946 12.9701H25.3065L25.5015 13.9796H27.2284L25.7622 6.7781H23.7413H23.7423ZM3.96073 6.80938C3.96073 6.80938 7.71162 7.96166 8.5886 10.7866L7.93895 7.52786C7.93895 7.52786 7.65218 6.80834 6.89617 6.80834H3.96177L3.96073 6.80938ZM24.4587 8.86366L25.0114 11.5686H23.4472L24.4587 8.86366Z" fill="white"/>
</svg>
