<svg width="174" height="16" fill="none" xmlns="http://www.w3.org/2000/svg"><path d="M105.051 15.695h-3.307v-8.47c-.054 0-.108-.028-.162-.028-1.383 2.824-2.765 5.647-4.174 8.498h-1.383a1325.45 1325.45 0 00-4.363-8.664c-.027 0-.081.028-.109.028v8.636H89.44V1.965h3.253a2805.39 2805.39 0 014.607 9.302c1.545-3.184 3.063-6.257 4.554-9.33h3.198v13.758zm-49.924.001h-3.713c-1.464-2.021-2.954-4.07-4.445-6.118h-.542v6.09h-3.36V1.993c.08-.027.135-.083.216-.083 2.087.028 4.147.028 6.234.11.921.029 1.816.36 2.575.942 1.761 1.356 1.816 3.848.08 5.204-.487.388-1.083.665-1.706 1.052a726.685 726.685 0 004.661 6.478zm-8.673-7.474c1.274.083 2.44-.056 3.117-1.246.515-.914.434-1.855-.163-2.74-.731-1.108-1.87-.859-2.98-.831.026 1.606.026 3.156.026 4.817zm-28.756 7.446h-3.144V1.108c1.003-.36 1.816-1.33 3.117-1.08v5.979c.271-.138.488-.25.705-.332 1.057-.47 2.168-.803 3.333-.498 1.139.304 2.169 1.411 2.196 2.63.054 2.601.027 5.203.027 7.86H20.76V8.609c0-.664-.027-1.301-.949-1.66-.623.304-1.355.691-2.087 1.051-.027 2.602-.027 5.121-.027 7.668zm101.094-5.26c.108 3.156-2.738 5.897-6.288 5.509-1.979-.222-3.578-1.135-4.472-3.017-1.355-2.824-.054-6.976 4.011-7.696 1.22-.221 2.412-.083 3.578.388 1.816.72 3.333 2.657 3.171 4.816zm-3.388.61c0-.25.027-.499 0-.748-.109-1.107-.271-2.187-1.03-3.073-.976-1.162-2.25-.996-2.954.332-.488.942-.569 1.938-.488 2.962.108 1.246.325 2.464 1.192 3.433.922 1.024 2.033.913 2.711-.277.488-.83.623-1.716.569-2.63zM72.852 8.997c0-.47.027-.914 0-1.357-.027-.692-.352-1.218-.867-1.356a1.465 1.465 0 00-1.626.581c-.217.305-.353.692-.542 1.08h-2.602c.217-.83.623-1.467 1.274-1.938 1.355-.969 2.873-1.107 4.472-.913.487.055.975.193 1.436.36 1.111.442 1.653 1.3 1.653 2.518 0 1.69.028 3.378-.027 5.038-.027 1.108.136 2.049 1.247 2.603h-3.767c-.19-.222-.407-.499-.65-.803-.977 1.024-2.142 1.273-3.47.969-1.003-.222-1.762-.775-2.005-1.827-.245-1.024-.109-1.966.677-2.74.759-.72 1.653-1.163 2.629-1.523a21.84 21.84 0 002.168-.692zm-.027 4.401v-2.934c-1.057.526-1.978 1.052-2.33 2.242-.136.47-.055.886.297 1.19.353.332.814.277 1.193.056.271-.166.542-.388.84-.554zM36.21 9.606h-7.047c.135 1.522.433 2.878 1.599 3.847.596.499 1.3.47 1.978.222 1.03-.332 1.735-1.025 2.168-2.104.515.083 1.057.166 1.572.277-.65 3.017-4.228 4.927-7.046 3.82-1.87-.748-3.605-2.575-3.361-5.481.19-2.325 1.653-4.318 3.875-4.872 2.033-.498 3.85-.11 5.286 1.522.677.72.948 1.661.975 2.769zm-3.633-1.19c-.325-1.33-.921-1.938-1.788-1.91-.813.027-1.355.719-1.545 1.91h3.334zm33.012 1.189h-7.02c.108 1.44.406 2.741 1.463 3.737.624.61 1.383.582 2.142.333 1.03-.36 1.734-1.052 2.14-2.104.543.083 1.058.194 1.573.277-.407 1.91-2.738 4.263-5.448 4.152-2.304-.083-4.445-1.8-4.906-4.125-.433-2.214.353-4.65 2.304-5.951 1.843-1.218 4.472-1.08 6.152.277 1.03.775 1.6 1.965 1.6 3.404zm-3.578-1.19c-.352-1.356-.922-1.938-1.816-1.91-.813.028-1.382.748-1.518 1.91h3.334zm80.008 1.163h-6.993c-.271 1.3.678 3.46 1.626 3.986.597.332 1.22.332 1.816.11 1.03-.331 1.762-.996 2.169-2.103.515.083 1.057.166 1.734.305-.406.692-.677 1.356-1.111 1.882-2.548 3.322-7.372 2.851-9.025-.886-.895-1.993-.542-3.958.677-5.675 1.193-1.688 2.9-2.27 4.879-2.02 1.734.221 3.09 1.024 3.794 2.712.19.499.271 1.052.434 1.689zm-3.713-1.163c-.325-1.356-.922-1.937-1.789-1.91-.813.028-1.382.72-1.518 1.91h3.307zM4.662 15.668V3.183H0V1.938h12.63v1.218H8.05v12.54c-1.166-.028-2.223-.028-3.388-.028zM122.993 5.343c.46.996.948 1.993 1.436 3.017.488 1.024.949 2.02 1.491 3.155a637.746 637.746 0 012.954-6.172h2.195c-1.68 3.57-3.333 7.058-4.987 10.574h-1.49c-1.599-3.46-3.253-7.004-4.906-10.574h3.307zm37.266 1.882c-.597.221-1.166.415-1.789.637-.081-.166-.163-.305-.244-.443-.434-.83-1.247-1.163-2.114-.775-.678.304-.894.886-.379 1.44.379.414.921.719 1.409 1.023.84.526 1.789.914 2.575 1.495 1.951 1.44 1.219 4.319-.705 5.01-1.274.471-2.548.554-3.849.194-1.165-.304-1.924-1.135-2.493-2.297.596-.222 1.165-.47 1.789-.72.433.997.948 1.855 2.141 1.8.623-.028 1.138-.305 1.301-.997-.054-.748-.488-1.246-1.111-1.578-.597-.332-1.247-.581-1.816-.941-.597-.388-1.193-.775-1.627-1.301-.921-1.08-.758-2.63.244-3.627 1.518-1.494 5.475-1.605 6.668 1.08zm-78.137 8.443h-3.063V1.108C80.062.747 80.848-.25 82.122.054v15.613zm62.336-.028V6.228c.705-.387 1.436-.775 2.222-1.218.271.333.542.665.841 1.025.84-.775 1.734-1.301 2.845-1.163.705.083 1.274.443 1.816.913a85.153 85.153 0 01-1.057 1.689c-1.328-.858-2.032-.858-2.927-.083-.379.332-.596.72-.569 1.246.027 2.048 0 4.097 0 6.145v.803c-1.057.055-2.087.055-3.171.055zM168.58 2.99a2406.83 2406.83 0 00-.244 4.346h-1.139c.136-1.883.271-3.71.407-5.592h1.734c.407 1.218.841 2.491 1.274 3.792.434-1.273.84-2.519 1.274-3.792h1.708c.135 1.827.271 3.654.406 5.564h-1.165c-.082-1.44-.19-2.879-.298-4.485-.488 1.55-.949 2.962-1.383 4.402h-1.246c-.434-1.384-.841-2.796-1.274-4.208-.027 0-.027 0-.054-.027zm-1.654-1.218v.858h-1.761v4.706h-1.112v-4.65h-1.788v-.914h4.661z" fill="#fff"/></svg>