<svg xmlns="http://www.w3.org/2000/svg" xmlns:xlink="http://www.w3.org/1999/xlink"><symbol id="apple-pay-icon" viewBox="0 0 31 21">
 <path opacity="0.7" d="M4.12445 0C2.40907 0 0.996094 1.41297 0.996094 3.12835V17.7273C0.996094 19.4427 2.40907 20.8557 4.12445 20.8557H27.0657C28.7811 20.8557 30.194 19.4427 30.194 17.7273V3.12835C30.194 1.41297 28.7811 0 27.0657 0H4.12445ZM4.12445 2.08557H27.0657C27.6559 2.08557 28.1085 2.53814 28.1085 3.12835V17.7273C28.1085 18.3175 27.6559 18.7701 27.0657 18.7701H4.12445C3.53423 18.7701 3.08166 18.3175 3.08166 17.7273V3.12835C3.08166 2.53814 3.53423 2.08557 4.12445 2.08557ZM10.3791 5.21392C9.89417 5.21392 9.34045 5.49026 8.98173 5.89382C8.70435 6.22855 8.40299 6.76037 8.50727 7.29115C9.00468 7.34954 9.54797 7.03775 9.85976 6.63419C10.206 6.264 10.402 5.7447 10.3791 5.21392ZM12.4667 7.29949V13.5562H13.4386V11.4133H14.7911C16.0164 11.4133 16.8819 10.5707 16.8819 9.3569C16.8819 8.13163 16.0268 7.29949 14.813 7.29949H12.4667ZM7.08387 7.84486C5.99937 7.84486 5.16723 8.7938 5.16723 10.1546C5.16723 11.9274 6.41231 13.5562 7.19023 13.5562C7.65948 13.5562 7.8305 13.2402 8.45409 13.2402C9.02866 13.2402 9.2101 13.5562 9.69917 13.5562C10.6272 13.5562 11.3947 11.6688 11.4239 11.554C11.2706 11.4769 10.378 11.0566 10.3791 10.041C10.3791 9.05449 11.1935 8.61235 11.2321 8.59254C10.7816 7.92203 10.0725 7.84486 9.80449 7.84486C9.18195 7.84486 8.63762 8.18168 8.34042 8.18168C8.03384 8.18168 7.58232 7.84486 7.08387 7.84486ZM13.4386 8.12016H14.5585C15.4022 8.12016 15.8881 8.57064 15.8881 9.3569C15.8881 10.1432 15.4022 10.6051 14.5585 10.6051H13.4386V8.12016ZM19.1718 8.89599C18.1436 8.89599 17.3793 9.48621 17.3574 10.2954H18.2344C18.3042 9.91375 18.6619 9.65931 19.1468 9.65931C19.7474 9.65931 20.0738 9.93773 20.0738 10.4466V10.7928L18.86 10.8742C17.739 10.944 17.1248 11.406 17.1248 12.2037C17.1248 13.0129 17.7495 13.5562 18.6504 13.5562C19.2625 13.5562 19.8309 13.2434 20.0843 12.7574H20.1062V13.5093H21.0082V10.3893C21.0082 9.48725 20.2813 8.89599 19.1718 8.89599ZM21.4075 8.95543L23.0489 13.5218L22.9676 13.7981C22.8174 14.2611 22.5744 14.4467 22.1469 14.4467C22.0666 14.4467 21.9175 14.4342 21.8601 14.4342V15.185C21.9185 15.1965 22.1584 15.208 22.2282 15.208C23.1772 15.208 23.6276 14.8388 24.0218 13.7522L25.7195 8.95543H24.7361L23.5932 12.6542H23.5682L22.4263 8.95543H21.4075ZM20.0728 11.4498V11.7981H20.0717C20.0717 12.3872 19.5754 12.8023 18.9174 12.8023C18.396 12.8023 18.0738 12.5614 18.0738 12.1797C18.0738 11.7866 18.3856 11.554 18.9987 11.5196L20.0728 11.4498Z" fill="white"/>
</symbol><symbol id="call-to-action-icon" viewBox="0 0 62 80">
  <path fill-rule="evenodd" clip-rule="evenodd" d="M0.577393 6.15377C0.577393 2.82872 3.13281 0 6.44107 0H35.2771C38.5854 0 41.1408 2.82872 41.1408 6.15377V45.5468C41.1408 46.2829 40.5464 46.8797 39.8131 46.8797C39.0799 46.8797 38.4855 46.2829 38.4855 45.5468V6.15377C38.4855 4.15592 36.9784 2.66589 35.2771 2.66589H6.44107C4.73976 2.66589 3.23264 4.15592 3.23264 6.15377V65.2077C3.23264 67.2056 4.73976 68.6956 6.44107 68.6956H14.0926C14.8258 68.6956 15.4202 69.2924 15.4202 70.0286C15.4202 70.7647 14.8258 71.3615 14.0926 71.3615H6.44107C3.13281 71.3615 0.577393 68.5328 0.577393 65.2077V6.15377Z" fill="white"/>
  <path fill-rule="evenodd" clip-rule="evenodd" d="M0.577393 7.32383C0.577393 6.59782 1.17179 6.00928 1.90502 6.00928H39.8131C40.5464 6.00928 41.1408 6.59782 41.1408 7.32383C41.1408 8.04984 40.5464 8.63839 39.8131 8.63839H1.90502C1.17179 8.63839 0.577393 8.04984 0.577393 7.32383Z" fill="white"/>
  <path fill-rule="evenodd" clip-rule="evenodd" d="M0.577393 64.0377C0.577393 63.3117 1.17602 62.7231 1.91446 62.7231H17.2685C18.0069 62.7231 18.6056 63.3117 18.6056 64.0377C18.6056 64.7637 18.0069 65.3523 17.2685 65.3523H1.91446C1.17602 65.3523 0.577393 64.7637 0.577393 64.0377Z" fill="white"/>
  <path fill-rule="evenodd" clip-rule="evenodd" d="M22.5535 41.6509C21.9761 40.6492 20.6951 40.3053 19.6922 40.8851L19.6908 40.8859C18.6871 41.4646 18.3445 42.7467 18.9231 43.7506L36.476 74.2287C36.4761 74.2288 36.4762 74.229 36.4763 74.2292C38.1876 77.1949 41.9699 78.2108 44.929 76.4986L44.9296 76.4983C46.5994 75.5332 48.4469 74.4646 50.2947 73.3959C52.1423 72.3273 53.9902 71.2585 55.6605 70.2932C58.6218 68.5793 59.6362 64.7914 57.9265 61.828L50.1757 48.3809C49.5983 47.3792 48.3174 47.0353 47.3144 47.6151C46.3142 48.1933 45.9708 49.4761 46.5498 50.4806C46.9177 51.1189 46.6992 51.935 46.0619 52.3034C45.4245 52.6719 44.6096 52.4531 44.2417 51.8148C43.6644 50.8131 42.3834 50.4692 41.3805 51.0491L41.3791 51.0498C40.3765 51.6278 40.0336 52.9077 40.6093 53.911C40.6103 53.9126 40.6112 53.9143 40.6121 53.9159C40.9791 54.5543 40.7601 55.3698 40.1228 55.7378C39.4855 56.1057 38.6711 55.8868 38.3033 55.2488C38.3026 55.2475 38.3018 55.2462 38.3011 55.2449C37.7226 54.2416 36.4436 53.8996 35.442 54.4786C34.4418 55.0568 34.0985 56.3395 34.6774 57.344C34.6774 57.344 34.6774 57.344 34.6774 57.344C35.0453 57.9823 34.8269 58.7984 34.1896 59.1669C33.5522 59.5353 32.7373 59.3166 32.3694 58.6784L32.3694 58.6783C32.3692 58.6781 32.3691 58.6778 32.369 58.6776L22.5535 41.6509L22.5535 41.6509ZM32.5392 53.6349C32.931 53.0499 33.4591 52.5433 34.1098 52.1671C35.275 51.4935 36.6072 51.3688 37.8064 51.7145C38.1075 50.5031 38.881 49.4109 40.0486 48.7374C41.2132 48.0643 42.5447 47.9395 43.7434 48.284C44.0434 47.0714 44.8159 45.9779 45.9821 45.3037C48.2571 43.9886 51.169 44.7656 52.4837 47.0466L60.234 60.4928C60.2341 60.493 60.2342 60.4932 60.2343 60.4933C62.6815 64.7356 61.2266 70.1548 56.9931 72.6044L56.9925 72.6047C55.3227 73.5698 53.4752 74.6384 51.6274 75.7071C49.7798 76.7757 47.9319 77.8445 46.2617 78.8098C42.0256 81.2605 36.6145 79.8035 34.1685 75.5638L16.615 45.0848C16.615 45.0847 16.6149 45.0845 16.6148 45.0844C15.3018 42.8059 16.0782 39.8896 18.3605 38.5733C20.6353 37.2587 23.5468 38.0358 24.8614 40.3166C24.8615 40.3166 24.8615 40.3166 24.8615 40.3166L32.5392 53.6349Z" fill="white"/>
  <path d="M38.8821 76.6832C39.5419 77.0017 39.8235 77.8051 39.5111 78.4776C39.1986 79.1502 38.4105 79.4372 37.7507 79.1187L18.6109 69.8802C17.9854 69.5783 17.6942 68.8357 17.9433 68.1775L19.1766 68.6625C17.9433 68.1775 17.9438 68.1763 17.9438 68.1763L17.9443 68.175L17.9454 68.1721L17.9471 68.1677L17.9482 68.1648L17.9559 68.1451C17.962 68.1297 17.97 68.1097 17.98 68.0855C18 68.0373 18.0279 67.9721 18.0639 67.8929C18.1358 67.7349 18.2411 67.5188 18.382 67.2686C18.6605 66.7741 19.0949 66.1157 19.7093 65.5085C20.3257 64.8992 21.1533 64.3124 22.21 64.0271C23.2826 63.7375 24.4969 63.7846 25.8242 64.2998C28.0394 65.1597 29.5938 65.8705 30.6046 66.3729C31.1101 66.6241 31.4797 66.8232 31.7282 66.9628C31.8524 67.0326 31.9464 67.0876 32.0119 67.1267C32.0447 67.1463 32.0703 67.1619 32.089 67.1735L32.112 67.1878L32.1197 67.1926L32.1226 67.1944L32.1244 67.1955C32.7438 67.5893 32.9332 68.4207 32.5469 69.0521L30.7211 69.4794C30.7127 69.4743 30.6974 69.4649 30.6749 69.4514L24.8834 66.8182C24.0297 66.4868 23.3814 66.4985 22.8869 66.632C22.3763 66.7699 21.9322 67.0649 21.5496 67.4431C21.1997 67.7954 20.8 68.7 22 69.5L34.5 75L38.8821 76.6832Z" fill="white"/>
  <path fill-rule="evenodd" clip-rule="evenodd" d="M21.2019 36.647C17.5943 36.647 14.6646 39.5574 14.6646 43.1411C14.6646 45.3571 15.7799 47.3138 17.4917 48.489C18.097 48.9046 18.2485 49.729 17.8302 50.3303C17.4118 50.9316 16.582 51.0821 15.9767 50.6665C13.576 49.0183 12 46.2632 12 43.1411C12 38.0955 16.1227 34 21.2019 34C26.2811 34 30.4038 38.0955 30.4038 43.1411C30.4038 43.872 29.8073 44.4646 29.0714 44.4646C28.3356 44.4646 27.7391 43.872 27.7391 43.1411C27.7391 39.5574 24.8094 36.647 21.2019 36.647Z" fill="white"/>
</symbol><symbol id="clock-icon" viewBox="0 0 17 17">
  <path d="M8.4915 0C3.7995 0 0 3.808 0 8.5C0 13.192 3.7995 17 8.4915 17C13.192 17 17 13.192 17 8.5C17 3.808 13.192 0 8.4915 0ZM8.5 15.3C4.743 15.3 1.7 12.257 1.7 8.5C1.7 4.743 4.743 1.7 8.5 1.7C12.257 1.7 15.3 4.743 15.3 8.5C15.3 12.257 12.257 15.3 8.5 15.3Z" fill="white" fill-opacity="0.8"/>
  <path d="M8.92539 4.25H7.65039V9.35L12.1129 12.0275L12.7504 10.982L8.92539 8.7125V4.25Z" fill="white" fill-opacity="0.8"/>
</symbol><symbol id="down-arrow-icon" viewBox="0 0 8 22">
<path opacity="0.5" d="M3.64645 21.3536C3.84171 21.5488 4.15829 21.5488 4.35355 21.3536L7.53553 18.1716C7.7308 17.9763 7.7308 17.6597 7.53553 17.4645C7.34027 17.2692 7.02369 17.2692 6.82843 17.4645L4 20.2929L1.17157 17.4645C0.976311 17.2692 0.659729 17.2692 0.464467 17.4645C0.269205 17.6597 0.269205 17.9763 0.464467 18.1716L3.64645 21.3536ZM3.5 2.18557e-08L3.5 21L4.5 21L4.5 -2.18557e-08L3.5 2.18557e-08Z" fill="white"/>
</symbol><symbol id="email-icon" viewBox="0 0 15 11">
  <path opacity="0.8" d="M13.9286 0H1.07143C0.787268 0 0.514746 0.115892 0.313814 0.322183C0.112882 0.528472 0 0.808262 0 1.1V9.9C0 10.1917 0.112882 10.4715 0.313814 10.6778C0.514746 10.8841 0.787268 11 1.07143 11H13.9286C14.2127 11 14.4853 10.8841 14.6862 10.6778C14.8871 10.4715 15 10.1917 15 9.9V1.1C15 0.808262 14.8871 0.528472 14.6862 0.322183C14.4853 0.115892 14.2127 0 13.9286 0ZM12.75 1.1L7.5 4.829L2.25 1.1H12.75ZM1.07143 9.9V1.6005L7.19464 5.951C7.28432 6.01487 7.39086 6.0491 7.5 6.0491C7.60914 6.0491 7.71568 6.01487 7.80536 5.951L13.9286 1.6005V9.9H1.07143Z" fill="white"/>
</symbol><symbol id="facebook-icon" viewBox="0 0 8 15">
  <path d="M4.76403 14.1367V7.69878H6.93593L7.25877 5.17812H4.76403V3.57257C4.76403 2.8452 4.96669 2.34719 6.01062 2.34719H7.33339V0.0998909C6.68979 0.0309173 6.04286 -0.00238635 5.39557 0.000132879C3.47582 0.000132879 2.15776 1.17209 2.15776 3.32357V5.17341H0V7.69407H2.16247V14.1367H4.76403Z"/>
</symbol><symbol id="instagram-icon" viewBox="0 0 15 15">
<path d="M10.2024 0.0453624C10.92 0.0783532 11.416 0.183806 11.8743 0.361721C12.3089 0.524207 12.7024 0.780464 13.0267 1.11226C13.3585 1.43657 13.6147 1.83 13.7772 2.26458C13.9551 2.72351 14.0606 3.21896 14.0936 3.93651C14.1342 4.82609 14.1389 5.1395 14.1389 7.06946C14.1389 8.99943 14.1342 9.31284 14.0936 10.2024C14.0606 10.92 13.9551 11.416 13.7772 11.8749C13.6146 12.3093 13.3584 12.7025 13.0267 13.0267C12.7024 13.3585 12.3089 13.6147 11.8743 13.7772C11.4154 13.9551 10.92 14.0606 10.2024 14.0936C9.31284 14.1342 9.00002 14.1389 7.06946 14.1389C5.13891 14.1389 4.8255 14.1342 3.93651 14.0936C3.21896 14.0606 2.72292 13.9551 2.264 13.7772C1.82962 13.6147 1.43638 13.3584 1.11226 13.0267C0.780464 12.7024 0.524207 12.3089 0.361721 11.8743C0.183806 11.4154 0.0783532 10.92 0.0453624 10.2024C0.00471298 9.31402 0 9.0006 0 7.06946C0 5.13891 0.00471298 4.82491 0.0453624 3.93651C0.0783532 3.21896 0.183806 2.72292 0.361721 2.26458C0.524207 1.83 0.780464 1.43657 1.11226 1.11226C1.4364 0.780536 1.82962 0.524284 2.264 0.361721C2.72351 0.183806 3.21896 0.0783532 3.93651 0.0453624C4.82491 0.00471298 5.13832 0 7.06946 0C9.00002 0 9.31402 0.00471298 10.2024 0.0453624ZM7.06946 1.57119C5.16071 1.57119 4.8685 1.57531 4.0078 1.61478C3.46168 1.63953 3.13413 1.70904 2.83309 1.82628C2.57682 1.92643 2.41363 2.03247 2.22276 2.22276C2.03188 2.41363 1.92584 2.57682 1.82628 2.83309C1.70963 3.13354 1.63953 3.46168 1.61478 4.0078C1.57531 4.8685 1.57119 5.16071 1.57119 7.06946C1.57119 8.97822 1.57531 9.27042 1.61478 10.1311C1.63953 10.6772 1.70904 11.0048 1.82628 11.3053C1.92643 11.5621 2.03247 11.7253 2.22276 11.9162C2.41363 12.107 2.57682 12.2131 2.83309 12.3126C3.13354 12.4293 3.46168 12.4994 4.0078 12.5241C4.86909 12.5636 5.1613 12.5677 7.06946 12.5677C8.97822 12.5677 9.26983 12.5636 10.1311 12.5241C10.6772 12.4994 11.0048 12.4299 11.3058 12.3126C11.5621 12.2125 11.7253 12.1065 11.9162 11.9162C12.107 11.7253 12.2131 11.5621 12.3126 11.3058C12.4293 11.0054 12.4994 10.6772 12.5241 10.1311C12.5636 9.26983 12.5677 8.97763 12.5677 7.06946C12.5677 5.1613 12.5636 4.86909 12.5241 4.0078C12.4994 3.46168 12.4299 3.13413 12.3126 2.83368C12.2293 2.6022 12.0936 2.39312 11.9162 2.22276C11.7458 2.04526 11.5367 1.90957 11.3053 1.82628C11.0048 1.70963 10.6767 1.63953 10.1305 1.61478C9.26983 1.57531 8.97763 1.57119 7.06887 1.57119H7.06946ZM7.06946 10.735C6.09731 10.735 5.16497 10.3488 4.47755 9.66138C3.79013 8.97396 3.40395 8.04162 3.40395 7.06946C3.40395 6.09731 3.79013 5.16497 4.47755 4.47755C5.16497 3.79013 6.09731 3.40395 7.06946 3.40395C8.04162 3.40395 8.97396 3.79013 9.66138 4.47755C10.3488 5.16497 10.735 6.09731 10.735 7.06946C10.735 8.04162 10.3488 8.97396 9.66138 9.66138C8.97396 10.3488 8.04162 10.735 7.06946 10.735ZM7.06946 9.16438C7.62507 9.16438 8.15792 8.94367 8.55079 8.55079C8.94367 8.15792 9.16438 7.62507 9.16438 7.06946C9.16438 6.51386 8.94367 5.98101 8.55079 5.58813C8.15792 5.19526 7.62507 4.97455 7.06946 4.97455C6.51386 4.97455 5.98101 5.19526 5.58813 5.58813C5.19526 5.98101 4.97455 6.51386 4.97455 7.06946C4.97455 7.62507 5.19526 8.15792 5.58813 8.55079C5.98101 8.94367 6.51386 9.16438 7.06946 9.16438ZM10.735 4.18925C10.5266 4.18925 10.3268 4.10648 10.1795 3.95915C10.0322 3.81182 9.94939 3.612 9.94939 3.40365C9.94939 3.1953 10.0322 2.99548 10.1795 2.84815C10.3268 2.70083 10.5266 2.61806 10.735 2.61806C10.9433 2.61806 11.1432 2.70083 11.2905 2.84815C11.4378 2.99548 11.5206 3.1953 11.5206 3.40365C11.5206 3.612 11.4378 3.81182 11.2905 3.95915C11.1432 4.10648 10.9433 4.18925 10.735 4.18925Z"/>
</symbol><symbol id="linkedin-icon" viewBox="0 0 15 14">
<path d="M3.31703 14V4.55422H0.315977V14H3.31703ZM1.81689 3.26379C2.86341 3.26379 3.51482 2.53846 3.51482 1.63205C3.49532 0.705193 2.86345 0 1.83675 0C0.81021 0 0.138916 0.705207 0.138916 1.63205C0.138916 2.53851 0.790163 3.26379 1.7973 3.26379H1.8168H1.81689ZM4.9781 14H7.97915V8.72502C7.97915 8.44271 7.99865 8.16069 8.0779 7.95888C8.29485 7.39483 8.78864 6.81064 9.61766 6.81064C10.7036 6.81064 11.1381 7.67685 11.1381 8.94665V13.9999H14.1389V8.58381C14.1389 5.68244 12.6584 4.33246 10.6838 4.33246C9.0649 4.33246 8.35408 5.27917 7.95918 5.92397H7.97921V4.55403H4.97816C5.01755 5.44037 4.97816 13.9998 4.97816 13.9998L4.9781 14Z"/>
</symbol><symbol id="master-card-icon" viewBox="0 0 30 21">
  <path opacity="0.7" d="M3.12835 0C1.41297 0 0 1.41297 0 3.12835V17.7273C0 19.4427 1.41297 20.8557 3.12835 20.8557H26.0696C27.785 20.8557 29.198 19.4427 29.198 17.7273V3.12835C29.198 1.41297 27.785 0 26.0696 0H3.12835ZM3.12835 2.08557H26.0696C26.6588 2.08557 27.1124 2.53918 27.1124 3.12835V17.7273C27.1124 18.3165 26.6588 18.7701 26.0696 18.7701H3.12835C2.53918 18.7701 2.08557 18.3165 2.08557 17.7273V3.12835C2.08557 2.53918 2.53918 2.08557 3.12835 2.08557ZM10.4278 3.12835C6.40895 3.12835 3.12835 6.40895 3.12835 10.4278C3.12835 14.4467 6.40895 17.7273 10.4278 17.7273C11.9193 17.7329 13.3761 17.2777 14.599 16.4238C15.822 17.2775 17.2787 17.7327 18.7701 17.7273C22.789 17.7273 26.0696 14.4467 26.0696 10.4278C26.0696 6.40895 22.789 3.12835 18.7701 3.12835C17.2185 3.12835 15.7773 3.60595 14.599 4.43183C13.3761 3.57802 11.9193 3.12278 10.4278 3.12835ZM10.4278 5.21392C11.7647 5.21392 12.9618 5.73114 13.8826 6.54868C13.4489 7.08672 13.1071 7.69275 12.8711 8.34227H15.1861C15.3321 8.67388 15.4697 9.02008 15.5437 9.38506H12.6114C12.5491 9.72922 12.5163 10.0781 12.5134 10.4278C12.5134 10.7845 12.5551 11.1307 12.6114 11.4706H15.5437C15.4707 11.8356 15.331 12.1818 15.1861 12.5134H12.8711C13.1057 13.1704 13.455 13.77 13.8826 14.307C12.9618 15.1235 11.7657 15.6418 10.4278 15.6418C7.5362 15.6418 5.21392 13.3195 5.21392 10.4278C5.21392 7.5362 7.5362 5.21392 10.4278 5.21392ZM18.7701 5.21392C21.6628 5.21392 23.984 7.53516 23.984 10.4278C23.984 13.3205 21.6628 15.6418 18.7701 15.6418C17.8529 15.638 16.9532 15.3904 16.1632 14.9243C17.1778 13.6454 17.7291 12.0604 17.7273 10.4278C17.7273 8.7281 17.1434 7.17435 16.1632 5.93031C16.9533 5.4646 17.853 5.21736 18.7701 5.21392Z" fill="white"/>
</symbol><symbol id="mobile-icon" viewBox="0 0 11 18">
  <g opacity="0.8">
  <path d="M9.77778 0H1.22222C0.898069 0 0.587192 0.128769 0.357981 0.357981C0.12877 0.587192 0 0.898069 0 1.22222V15.8889C0 16.213 0.12877 16.5239 0.357981 16.7531C0.587192 16.9823 0.898069 17.1111 1.22222 17.1111H9.77778C10.1019 17.1111 10.4128 16.9823 10.642 16.7531C10.8712 16.5239 11 16.213 11 15.8889V1.22222C11 0.898069 10.8712 0.587192 10.642 0.357981C10.4128 0.128769 10.1019 0 9.77778 0ZM1.22222 1.22222H9.77778V12.2222H1.22222V1.22222ZM1.22222 15.8889V13.4444H9.77778V15.8889H1.22222Z" fill="white"/>
  <path d="M4.88889 14.0557H6.11111V15.2779H4.88889V14.0557Z" fill="white"/>
  </g>
</symbol><symbol id="note-icon" viewBox="0 0 75 80">
  <path d="M3.5591 0H41.8592C42.0717 0 42.2709 0.0531209 42.448 0.150509C42.6118 0.23019 42.7534 0.345286 42.8641 0.495795L56.2683 13.9C56.5073 14.139 56.6268 14.4533 56.6268 14.7632V28.5569L54.1833 31.0004V16.4143H44.1966C42.2355 16.4143 40.6375 14.8163 40.6375 12.8552V2.44356H3.5591C2.94821 2.44356 2.44356 2.94821 2.44356 3.5591V76.4409C2.44356 77.0518 2.94821 77.5564 3.5591 77.5564H53.0677C53.6786 77.5564 54.1833 77.0518 54.1833 76.4409V57.7512L56.6268 55.3077V76.4409C56.6268 78.402 55.0288 80 53.0677 80H3.5591C1.59805 80 0 78.402 0 76.4409V3.5591C0 1.59805 1.59805 0 3.5591 0ZM43.081 4.16999V12.8552C43.081 13.4661 43.5857 13.9708 44.1966 13.9708H52.8818L43.081 4.16999Z" fill="white"/>
  <path d="M69.0482 25.3827L73.1783 29.5128C74.4842 30.8187 74.4842 32.9391 73.1783 34.245L44.6126 62.8152C44.4444 62.9834 44.2363 63.094 44.015 63.1427L34.0415 66.0334C33.1031 66.3079 32.2575 65.4225 32.532 64.5106L35.4404 54.4752C35.4979 54.2716 35.6086 54.0945 35.7502 53.9528L64.316 25.3871C65.6174 24.0768 67.7423 24.0768 69.0482 25.3827ZM64.1655 28.9905L69.5749 34.3999L71.4519 32.523C71.8016 32.1733 71.8016 31.5978 71.4519 31.2481L67.3217 27.118C66.972 26.7682 66.3965 26.7682 66.0468 27.118L64.1655 28.9905ZM67.8441 36.1264L62.4346 30.7169L38.3399 54.8116L43.7494 60.2211L67.8441 36.1264ZM41.4253 61.3543L37.2111 57.1401L35.4935 63.0763L41.4253 61.3543Z" fill="white"/>
  <path d="M12.9083 33.0412C12.2354 33.0412 11.6865 32.4923 11.6865 31.8194C11.6865 31.1466 12.2354 30.5977 12.9083 30.5977H32.2443C32.9172 30.5977 33.4661 31.1466 33.4661 31.8194C33.4661 32.4923 32.9172 33.0412 32.2443 33.0412H12.9083Z" fill="white"/>
  <path d="M12.9083 40.903C12.2354 40.903 11.6865 40.3541 11.6865 39.6813C11.6865 39.0084 12.2354 38.4595 12.9083 38.4595H43.7184C44.3913 38.4595 44.9402 39.0084 44.9402 39.6813C44.9402 40.3541 44.3913 40.903 43.7184 40.903H12.9083Z" fill="white"/>
  <path d="M12.9083 48.7648C12.2354 48.7648 11.6865 48.2159 11.6865 47.5431C11.6865 46.8702 12.2354 46.3213 12.9083 46.3213H36.4276C37.1004 46.3213 37.6493 46.8702 37.6493 47.5431C37.6493 48.2159 37.1004 48.7648 36.4276 48.7648H12.9083Z" fill="white"/>
  <path d="M12.9083 56.6267C12.2354 56.6267 11.6865 56.0777 11.6865 55.4049C11.6865 54.732 12.2354 54.1831 12.9083 54.1831H31.235C31.9079 54.1831 32.4568 54.732 32.4568 55.4049C32.4568 56.0777 31.9079 56.6267 31.235 56.6267H12.9083Z" fill="white"/>
  <path d="M12.9083 64.4885C12.2354 64.4885 11.6865 63.9396 11.6865 63.2667C11.6865 62.5938 12.2354 62.0449 12.9083 62.0449H28.2514C28.9242 62.0449 29.4732 62.5938 29.4732 63.2667C29.4732 63.9396 28.9242 64.4885 28.2514 64.4885H12.9083Z" fill="white"/>
</symbol><symbol id="reload-icon" viewBox="0 0 14 16">
  <path d="M12.3846 0C12.0872 0 11.8461 0.241076 11.8461 0.53847V2.50545C9.0739 -0.178449 4.65088 -0.10683 1.96699 2.66534C0.702135 3.97181 -0.00348912 5.71999 1.29738e-05 7.53842C1.29738e-05 7.83582 0.241089 8.07689 0.538483 8.07689C0.835877 8.07689 1.07692 7.83582 1.07692 7.53842C1.07758 4.26722 3.72993 1.61588 7.00117 1.61655C8.66251 1.61686 10.2473 2.31491 11.3691 3.54036L8.9837 4.33565C8.7012 4.42964 8.54833 4.73483 8.64232 5.01733C8.73631 5.29983 9.0415 5.45269 9.324 5.3587L12.5548 4.2818C12.7753 4.20835 12.9238 4.00163 12.9231 3.7692V0.538439C12.923 0.241076 12.682 0 12.3846 0Z" fill="white"/>
  <path d="M13.4616 6.99976C13.1642 6.99976 12.9231 7.24083 12.9231 7.53822C12.9225 10.8094 10.2701 13.4608 6.99887 13.4601C5.33753 13.4598 3.75272 12.7617 2.63098 11.5363L5.01634 10.741C5.29885 10.647 5.45171 10.3418 5.35772 10.0593C5.26373 9.77681 4.95854 9.62395 4.67604 9.71794L1.44529 10.7948C1.22475 10.8683 1.07624 11.075 1.07697 11.3074V14.5382C1.07697 14.8356 1.31804 15.0767 1.61544 15.0767C1.91283 15.0767 2.15391 14.8356 2.15391 14.5382V12.5712C4.92611 15.2551 9.34915 15.1835 12.033 12.4113C13.2979 11.1048 14.0035 9.35666 14 7.53822C14.0001 7.24083 13.759 6.99976 13.4616 6.99976Z" fill="white"/>
</symbol><symbol id="right-arrow-icon" viewBox="0 0 18 16">
  <path d="M1 8H17" stroke="black" stroke-width="2" stroke-linecap="round" stroke-linejoin="round"/>
  <path d="M10 1L17 8L10 15" stroke="black" stroke-width="2" stroke-linecap="round" stroke-linejoin="round"/>
</symbol><symbol id="user-icon" viewBox="0 0 12 15">
  <path fill-rule="evenodd" clip-rule="evenodd" d="M9.66667 3.66667C9.66667 5.66667 8 7.33333 6 7.33333C4 7.33333 2.33333 5.66667 2.33333 3.66667C2.33333 1.66667 4 0 6 0C8 0 9.66667 1.66667 9.66667 3.66667ZM7.66667 3.66667C7.66667 2.73333 6.93333 2 6 2C5.06667 2 4.33333 2.73333 4.33333 3.66667C4.33333 4.6 5.06667 5.33333 6 5.33333C6.93333 5.33333 7.66667 4.6 7.66667 3.66667ZM0 12.6667C0 10.4667 1.8 8.66667 4 8.66667H8C10.2 8.66667 12 10.4667 12 12.6667V14.6667H10V12.6667C10 11.5333 9.06667 10.6667 8 10.6667H4C2.93333 10.6667 2 11.5333 2 12.6667V14.6667H0V12.6667Z"/>
</symbol><symbol id="visa-icon" viewBox="0 0 31 21">
  <path opacity="0.7" d="M4.12445 0C2.40907 0 0.996094 1.41297 0.996094 3.12835V17.7273C0.996094 19.4427 2.40907 20.8557 4.12445 20.8557H27.0657C28.7811 20.8557 30.194 19.4427 30.194 17.7273V3.12835C30.194 1.41297 28.7811 0 27.0657 0H4.12445ZM4.12445 2.08557H27.0657C27.6549 2.08557 28.1085 2.53918 28.1085 3.12835V17.7273C28.1085 18.3165 27.6549 18.7701 27.0657 18.7701H4.12445C3.53527 18.7701 3.08166 18.3165 3.08166 17.7273V3.12835C3.08166 2.53918 3.53527 2.08557 4.12445 2.08557ZM19.1468 6.64775C17.1384 6.64775 16.0841 7.63839 16.0841 8.89599C16.0841 11.1724 18.7537 10.8564 18.7537 12.0243C18.7537 12.2256 18.5868 12.6782 17.4815 12.6782C16.3761 12.6782 15.6566 12.2871 15.6566 12.2871L15.3333 13.7887C15.3333 13.7887 16.0164 14.2111 17.3876 14.2111C18.7537 14.2111 20.6766 13.1599 20.6766 11.6354C20.6766 9.80426 18.0039 9.68329 18.0039 8.86679C18.0039 8.44968 18.3584 8.11599 19.3074 8.11599C19.9268 8.11599 20.6109 8.6061 20.6109 8.6061L20.9383 7.01064C20.9383 7.01064 20.0311 6.65088 19.1447 6.65088L19.1468 6.64775ZM10.5772 6.7781L8.81697 11.9274C8.81697 11.9274 8.72938 11.4811 8.68663 11.2099C7.69077 8.97837 6.07967 8.14623 6.07967 8.14623L7.61256 13.9796H9.69813L12.6284 6.7781H10.5793H10.5772ZM13.3792 6.7781L12.2383 13.9796H14.1633L15.3031 6.7781H13.3792ZM23.7423 6.7781L20.614 13.9796H22.5035L22.8946 12.9701H25.3065L25.5015 13.9796H27.2284L25.7622 6.7781H23.7413H23.7423ZM3.96073 6.80938C3.96073 6.80938 7.71162 7.96166 8.5886 10.7866L7.93895 7.52786C7.93895 7.52786 7.65218 6.80834 6.89617 6.80834H3.96177L3.96073 6.80938ZM24.4587 8.86366L25.0114 11.5686H23.4472L24.4587 8.86366Z" fill="white"/>
</symbol></svg>